# xmcd
#
# Track frame offsets: 
#        150
#        16258
#        36641
#        53095
#        80729
#        98257
#        125621
#        138982
#        158529
#        179373
#        202750
#        231599
#        250706
#        267990
#
# Disc length: 3777 seconds
#
# Revision: 0
# Processed by: cddbd v1.5.2PL0 Copyright (c) Steve Scherf et al.
# Submitted via: ExactAudioCopy v1.0b1
#
DISCID=b50ebf0e
DTITLE=The Hootchie Coochie Men - For a Good Time Call
DYEAR=2007
DGENRE=Blues
TTITLE0=Something's Got a Hold On Me
TTITLE1=You Got No Business
TTITLE2=Soothe Me
TTITLE3=Sneakin'
TTITLE4=Jaguar Blues
TTITLE5=You Don't KNow It's Your 
TTITLE6=Funky Ways
TTITLE7=Back In Idaho
TTITLE8=Let Me In
TTITLE9=Crazy "Bout You Baby
TTITLE10=Turn Me Loose
TTITLE11=Weak From Walkin'
TTITLE12=You Got Me Hummin'
TTITLE13=Phone Booth
EXTD=
EXTT0=
EXTT1=
EXTT2=
EXTT3=
EXTT4=
EXTT5=
EXTT6=
EXTT7=
EXTT8=
EXTT9=
EXTT10=
EXTT11=
EXTT12=
EXTT13=
PLAYORDER=
